<?xml version="1.0" encoding="UTF-8"?>
<svg version="1.1" xmlns="http://www.w3.org/2000/svg" width="1080" height="1080">
<path d="M0 0 C356.4 0 712.8 0 1080 0 C1080 356.4 1080 712.8 1080 1080 C723.6 1080 367.2 1080 0 1080 C0 723.6 0 367.2 0 0 Z " fill="#8BC7DD" transform="translate(0,0)"/>
<path d="M0 0 C356.4 0 712.8 0 1080 0 C1080 356.4 1080 712.8 1080 1080 C723.6 1080 367.2 1080 0 1080 C0 723.6 0 367.2 0 0 Z M141 11 C140.05252156 11.2033909 139.10504311 11.40678179 138.1288532 11.61633605 C106.91397332 18.32089008 79.78725408 35.07199381 57 57 C55.98099609 57.92425781 55.98099609 57.92425781 54.94140625 58.8671875 C34.72773001 77.77811122 20.07729612 105.45150868 13 132 C12.72542969 132.98097656 12.45085938 133.96195312 12.16796875 134.97265625 C8.9301457 147.07860547 7.69927617 159.09043615 7.74273109 171.59568119 C7.73922502 172.89546098 7.73571895 174.19524077 7.73210663 175.53440782 C7.72273585 179.11465539 7.7256206 182.69480004 7.73066217 186.27505237 C7.73395008 190.18072329 7.72562868 194.08637319 7.71884382 197.99203724 C7.70856788 204.82838798 7.70569583 211.66471041 7.70775604 218.50106812 C7.71081229 228.66750442 7.70246825 238.83390952 7.69200679 249.00033975 C7.67268459 268.21679457 7.66703923 287.43323869 7.66589268 306.64970208 C7.66497288 321.49234512 7.66085249 336.33498398 7.65449142 351.17762566 C7.65269628 355.45319698 7.65091665 359.72876831 7.64914167 364.00433964 C7.64869957 365.06732156 7.64825748 366.13030348 7.64780198 367.22549697 C7.63549689 397.11748923 7.62760052 427.00948005 7.62848854 456.90147495 C7.6285197 458.02802638 7.62855086 459.15457781 7.62858296 460.31526716 C7.62874917 466.02483202 7.62894725 471.73439688 7.62915237 477.44396175 C7.62919226 478.57785975 7.62923215 479.71175775 7.62927325 480.8800163 C7.62935413 483.17303373 7.62943772 485.46605115 7.62952404 487.75906857 C7.63074935 523.42899496 7.6157386 559.09888332 7.58837891 594.76879883 C7.55763795 634.86331956 7.54044762 674.9578153 7.54230535 715.05234855 C7.54245461 719.33012036 7.54255202 723.60789217 7.54261398 727.88566399 C7.54263729 728.93892407 7.5426606 729.99218414 7.54268462 731.07736119 C7.54274608 748.00472002 7.52999093 764.93204575 7.51274945 781.85939474 C7.49577118 798.88073676 7.49383632 815.90203051 7.5069681 832.92337633 C7.51434255 843.02598637 7.51074438 853.12844947 7.49108342 863.23104386 C7.47904219 869.99146837 7.48172028 876.75178701 7.49602441 883.51220676 C7.5037526 887.3560624 7.5054411 891.19963471 7.48910971 895.04346985 C7.42398355 911.42115471 8.05150816 927.02732639 12 943 C12.25419413 944.09151621 12.50838826 945.18303242 12.77028525 946.30762488 C16.14085899 960.26935857 22.25327625 973.39419048 29 986 C29.56589844 987.06089844 30.13179687 988.12179687 30.71484375 989.21484375 C37.7767773 1001.85985888 47.07187778 1012.55731046 57 1023 C57.61875 1023.68320312 58.2375 1024.36640625 58.875 1025.0703125 C75.90222303 1043.23775136 100.84999487 1057.87972132 124.81640625 1064.359375 C127 1065 127 1065 129.32075807 1065.96088253 C147.6973172 1073.08804916 168.33538879 1072.73625291 187.73377636 1072.64853913 C191.64070003 1072.63655502 195.54752518 1072.65403138 199.45442927 1072.66742164 C206.27457955 1072.68685766 213.09453561 1072.68808388 219.91470146 1072.67677689 C230.05719953 1072.66000779 240.19952677 1072.67209569 250.3420165 1072.68948474 C268.4650326 1072.71957697 286.58796544 1072.72114601 304.71099825 1072.71013172 C320.57259744 1072.7005197 336.43416482 1072.69984899 352.29576492 1072.70801735 C354.42863802 1072.70908317 356.56151112 1072.71014872 358.69438422 1072.71121398 C361.90895506 1072.71283516 365.12352588 1072.71446747 368.33809669 1072.716127 C398.19724036 1072.73136846 428.05637342 1072.73690801 457.91551781 1072.72152996 C459.60146616 1072.72066181 459.60146616 1072.72066181 461.32147407 1072.71977612 C470.44716149 1072.71501206 479.57284875 1072.70995377 488.698536 1072.70487839 C524.2899508 1072.68528775 559.88125213 1072.69449214 595.47265625 1072.72729492 C635.51936736 1072.76412623 675.56601207 1072.78115352 715.61274016 1072.76788265 C719.88736127 1072.76652528 724.1619824 1072.7652252 728.43660355 1072.76395607 C729.48901681 1072.76362811 730.54143007 1072.76330014 731.62573465 1072.76296224 C747.47030391 1072.75839672 763.31481621 1072.7689815 779.15937424 1072.78720665 C797.18936428 1072.80789097 815.21921272 1072.807164 833.24919485 1072.77857425 C843.32157048 1072.76320802 853.39362343 1072.76406446 863.46598145 1072.78910129 C870.21477739 1072.80418734 876.96332587 1072.79701449 883.71209361 1072.77261171 C887.54344201 1072.75935366 891.37416031 1072.75485879 895.20547812 1072.777693 C925.24688219 1072.94418218 953.31678125 1068.11386625 980.1003418 1053.98681641 C982.10881636 1052.94347311 984.13819862 1051.95023861 986.171875 1050.95703125 C989.23370071 1049.43075921 992.03232407 1047.75601135 994.8125 1045.75 C995.65683594 1045.1415625 996.50117187 1044.533125 997.37109375 1043.90625 C998.23863281 1043.2771875 999.10617187 1042.648125 1000 1042 C1001.31677734 1041.08734375 1001.31677734 1041.08734375 1002.66015625 1040.15625 C1010.01686054 1034.99067922 1016.5104684 1029.18875274 1023 1023 C1023.7321875 1022.32066406 1024.464375 1021.64132812 1025.21875 1020.94140625 C1041.08419023 1005.79998413 1055.79082618 983.06684103 1062.11328125 961.87890625 C1063 959 1063 959 1064.35915107 955.60040224 C1071.94328647 935.36952869 1072.8917235 914.33849001 1072.76460396 893.00928853 C1072.74817322 889.10019672 1072.76726333 885.19122797 1072.78139812 881.28214896 C1072.80134352 874.46132734 1072.79947861 867.64079685 1072.78252411 860.81997108 C1072.75738086 850.67665297 1072.76702358 840.53356542 1072.78310763 830.39023943 C1072.81071735 812.26592086 1072.80444006 794.14173604 1072.78359262 776.01741551 C1072.76546063 760.1571324 1072.75901352 744.29689638 1072.76395607 728.43660355 C1072.76426926 727.38174621 1072.76458244 726.32688888 1072.76490512 725.24006617 C1072.76619152 720.95734053 1072.76753076 716.67461491 1072.76894999 712.39188931 C1072.78207113 672.27510721 1072.76110631 632.15840759 1072.72413273 592.0416438 C1072.69152542 556.44993159 1072.68699227 520.85832257 1072.70678711 485.26660156 C1072.71183054 476.14957371 1072.71683529 467.03254585 1072.72152996 457.91551781 C1072.72210814 456.7928785 1072.72268632 455.6702392 1072.72328203 454.51358053 C1072.73816676 424.7149649 1072.72984812 394.91635619 1072.71446449 365.11774218 C1072.71283526 361.90910791 1072.71121702 358.70047364 1072.70961447 355.49183936 C1072.70855096 353.36359726 1072.70747126 351.23535516 1072.70637527 349.10711308 C1072.69846275 333.26074251 1072.7024112 317.41440384 1072.71204185 301.56803513 C1072.72289615 283.54023961 1072.71549426 265.51255027 1072.68458607 247.48477601 C1072.66780179 237.4120111 1072.66446754 227.33946334 1072.68116695 217.26669705 C1072.69094195 210.52025866 1072.68222625 203.77399966 1072.65910407 197.02759443 C1072.64646382 193.19604867 1072.64116351 189.3649354 1072.65848859 185.53339796 C1072.8658361 135.7734907 1057.33910742 93.11887824 1023 57 C1022.071875 55.97519531 1022.071875 55.97519531 1021.125 54.9296875 C998.30188229 30.57823601 965.20812446 16.22280112 933 10 C932.24093195 9.83566624 931.4818639 9.67133249 930.69979379 9.50201892 C923.33389546 8.00035313 916.26420501 7.71785404 908.76228905 7.74552441 C907.46477241 7.74231793 906.16725576 7.73911145 904.83042043 7.73580781 C901.24255929 7.72722784 897.65480341 7.73099751 894.06694077 7.73686353 C890.15829439 7.74104705 886.24966676 7.7336244 882.34102499 7.72771102 C875.49491319 7.71895805 868.64883131 7.7176337 861.8027153 7.72121429 C851.6219343 7.72652487 841.44118221 7.72042237 831.26040435 7.71213136 C812.01821403 7.69689174 792.77603687 7.6951863 773.53384177 7.69765439 C758.67297689 7.6994873 743.81211632 7.69772749 728.95125198 7.69342995 C726.81592137 7.69282754 724.68059075 7.69222635 722.54526014 7.69162634 C719.32746675 7.69071908 716.10967335 7.68981042 712.89187996 7.68889399 C682.97380995 7.68046431 653.05574155 7.67612882 623.13767052 7.68030071 C622.00982017 7.68045709 620.88196982 7.68061346 619.71994219 7.68077458 C614.00361299 7.68158036 608.2872838 7.68242613 602.57095461 7.68328788 C601.43568479 7.68345897 600.30041498 7.68363006 599.13074305 7.68380633 C596.83495089 7.68415298 594.53915873 7.68450151 592.24336657 7.68485192 C556.52698071 7.6902082 520.81061954 7.68228139 485.09423828 7.66381836 C444.9605918 7.64309616 404.82696061 7.63237615 364.69330847 7.63639385 C360.41275319 7.63678919 356.1321979 7.63715073 351.85164261 7.63749123 C350.79767334 7.63758196 349.74370406 7.63767269 348.65779633 7.63776617 C332.75548383 7.63893155 316.85318678 7.63228829 300.95087814 7.62167931 C282.86096018 7.60962315 264.77107623 7.60807307 246.68115775 7.62046947 C236.5621944 7.62709356 226.44331242 7.62547741 216.32435559 7.61188096 C209.55802797 7.6036241 202.79176118 7.60635007 196.02543849 7.61785623 C192.1749143 7.62410043 188.32454866 7.62574529 184.47403376 7.61399289 C169.71704029 7.57194777 155.42319792 7.54196751 141 11 Z " fill="#FCFDFE" transform="translate(0,0)"/>
<path d="M0 0 C4.79529381 3.55583227 8.67186159 8.32808476 10.5625 14 C10.65601308 15.67623245 10.69161899 17.35596421 10.69392776 19.03480148 C10.69776891 20.08147641 10.70161005 21.12815134 10.7055676 22.20654368 C10.70470112 23.36031481 10.70383463 24.51408594 10.70294189 25.70281982 C10.70591302 26.92550985 10.70888414 28.14819987 10.7119453 29.4079411 C10.71913383 32.8081364 10.72180525 36.20828118 10.72254276 39.60848045 C10.72439212 43.27322329 10.73193889 46.93795515 10.73867798 50.60269165 C10.752267 58.61925576 10.75828697 66.63581486 10.76268864 74.65238857 C10.76545023 79.65714817 10.76968744 84.66190583 10.77419281 89.66666412 C10.78638647 103.52082066 10.79668543 117.37497564 10.8000679 131.22913742 C10.80039725 132.55951304 10.80039725 132.55951304 10.80073325 133.91676493 C10.80095153 134.80581681 10.80116981 135.69486869 10.8013947 136.61086154 C10.80183817 138.41244936 10.80228473 140.21403718 10.80273438 142.015625 C10.80306652 143.35610263 10.80306652 143.35610263 10.80340537 144.72366062 C10.80735332 159.20378345 10.82480679 173.68385596 10.8480939 188.16395935 C10.8718043 203.02714324 10.88426962 217.89030188 10.88543582 232.75350499 C10.88635278 241.09996738 10.89211037 249.4463642 10.91025543 257.79280853 C10.92565226 264.9002189 10.93077938 272.00754345 10.92251733 279.11496732 C10.91860926 282.74114718 10.91954792 286.36715421 10.93357468 289.99331284 C10.94864555 293.92536514 10.94045162 297.8571739 10.92999268 301.78924561 C10.94207728 303.50651796 10.94207728 303.50651796 10.95440602 305.25848269 C10.89715929 314.44168357 9.1789675 320.22966116 2.5625 327 C-4.16290766 331.06427513 -10.86949545 330.81198382 -18.4375 330 C-30.93982466 326.40558166 -40.9676619 314.68851827 -50.22265625 306 C-53.21524333 303.19482746 -56.2771056 300.48385954 -59.3828125 297.8046875 C-62.10674745 295.4121819 -64.77091628 292.9559232 -67.4375 290.5 C-71.37029967 286.87904692 -75.33964153 283.31040953 -79.37890625 279.80859375 C-82.89192302 276.7222052 -86.33049818 273.55371222 -89.78515625 270.40234375 C-91.96210996 268.43058156 -94.15588674 266.48634663 -96.375 264.5625 C-100.72031147 260.79478617 -104.91577422 256.86779666 -109.1171875 252.94140625 C-109.63348724 252.48706207 -110.14978699 252.0327179 -110.68173218 251.56460571 C-111.97464497 250.41246093 -113.22834364 249.21594051 -114.4581604 247.99667358 C-121.51267954 241.53242693 -127.05376153 240.86658836 -136.40625 241.03515625 C-138.41759001 241.02215866 -140.42893001 241.00915963 -142.44026947 240.99607754 C-145.23335501 240.98819878 -148.0256239 241.01734792 -150.81854248 241.04541016 C-155.02390989 241.07932734 -159.22929531 241.05929037 -163.43473053 241.04637051 C-166.71031663 241.03718615 -169.98507291 241.03861566 -173.26062012 241.06056213 C-186.23657377 241.12473365 -197.132155 240.82917057 -207.61328125 232.2109375 C-216.29516433 223.17583005 -217.58187193 211.0999334 -217.59863281 199.11816406 C-217.60359772 198.25698975 -217.60856262 197.39581543 -217.61367798 196.50854492 C-217.62820634 193.67756329 -217.63508596 190.84663769 -217.640625 188.015625 C-217.64345238 187.04284355 -217.64627975 186.0700621 -217.64919281 185.06780243 C-217.6641477 179.91987337 -217.67340053 174.77197206 -217.67773438 169.62402344 C-217.68321359 164.33069893 -217.70724076 159.03763234 -217.73570633 153.74438858 C-217.75441131 149.65207191 -217.75954248 145.55981642 -217.76107025 141.46746063 C-217.76407955 139.51719503 -217.77204922 137.56693006 -217.78525543 135.61670685 C-217.87220667 121.78951957 -217.93617277 109.05300104 -208.4375 98 C-199.98457746 89.69537435 -189.78433558 87.54279116 -178.25817871 87.62519836 C-177.57982468 87.6389834 -176.90147064 87.65276844 -176.20256042 87.66697121 C-174.03911471 87.70806913 -171.87731839 87.71881835 -169.71350098 87.72160339 C-163.57121234 87.73324848 -157.43005492 87.78572843 -151.28857422 87.88647461 C-147.50824166 87.94637732 -143.72977807 87.96165583 -139.94902039 87.9503231 C-138.52333974 87.95473486 -137.09759784 87.97566371 -135.67243958 88.01450539 C-126.10844265 88.27053365 -120.73024391 86.89141519 -113.68083191 80.27461243 C-112.94053238 79.52399033 -112.20023285 78.77336823 -111.4375 78 C-110.15763875 76.83530058 -108.8736884 75.67504133 -107.58203125 74.5234375 C-106.46843431 73.47705709 -105.35770539 72.42761525 -104.25 71.375 C-103.05417294 70.25176515 -101.85756483 69.12936123 -100.66015625 68.0078125 C-100.10215332 67.48477539 -99.54415039 66.96173828 -98.96923828 66.42285156 C-96.48313355 64.11347663 -93.92760108 61.88889067 -91.359375 59.671875 C-89.02644926 57.64241927 -86.73238755 55.572353 -84.4375 53.5 C-79.11415307 48.70092208 -73.74886661 43.9592205 -68.28515625 39.3203125 C-61.15151561 33.25561492 -54.1842218 27.05607893 -47.328125 20.6796875 C-43.76154976 17.37337586 -40.14384117 14.14824346 -36.4375 11 C-35.56351563 10.2471875 -34.68953125 9.494375 -33.7890625 8.71875 C-24.1369215 0.57392965 -12.86644281 -7.28522194 0 0 Z " fill="#283B41" transform="translate(502.4375,375)"/>
<path d="M0 0 C0 83.82 0 167.64 0 254 C-5 255 -5 255 -6.78125 253.98828125 C-7.3484375 253.43527344 -7.915625 252.88226562 -8.5 252.3125 C-9.52480469 251.34376953 -9.52480469 251.34376953 -10.5703125 250.35546875 C-11.37210938 249.57816406 -12.17390625 248.80085937 -13 248 C-14.55905856 246.55008589 -16.12661671 245.1097096 -17.69458008 243.66943359 C-19.384951 242.11585428 -21.06980666 240.55646656 -22.75390625 238.99609375 C-28.3642049 233.80809338 -34.03793305 228.69212469 -39.8125 223.6875 C-43.97880355 220.05987004 -48.02272097 216.30428752 -52.07470703 212.55029297 C-57.00609844 207.98429554 -61.99365203 203.48366237 -67 199 C-68.667057 197.50043381 -70.33371995 196.00042947 -72 194.5 C-72.82371094 193.76394531 -73.64742188 193.02789063 -74.49609375 192.26953125 C-76.19716063 190.7276906 -77.87636061 189.16144847 -79.53515625 187.57421875 C-80.36917969 186.78660156 -81.20320313 185.99898437 -82.0625 185.1875 C-82.79597656 184.47980469 -83.52945313 183.77210938 -84.28515625 183.04296875 C-92.25704983 177.04397545 -99.85612463 176.43688732 -109.60782814 176.5141449 C-111.87419549 176.53157426 -114.13930641 176.5238136 -116.40568542 176.5098877 C-121.20804551 176.48470101 -126.01010088 176.49003701 -130.8125 176.5 C-136.39869143 176.51154287 -141.98426581 176.51040273 -147.57037926 176.47593689 C-149.79978118 176.46885248 -152.02819854 176.48549721 -154.25752258 176.50305176 C-155.62326589 176.49734532 -156.98900516 176.49052875 -158.35473633 176.48242188 C-159.54448563 176.48560425 -160.73423492 176.48878662 -161.96003723 176.49206543 C-165.62863775 175.89824517 -166.77149117 174.91874397 -169 172 C-170.23212643 168.30362071 -170.15552039 164.87780074 -170.16113281 161.02783203 C-170.16609772 160.21612549 -170.17106262 159.40441895 -170.17617798 158.56811523 C-170.19078984 155.88133905 -170.19759973 153.1946219 -170.203125 150.5078125 C-170.20887695 148.64077757 -170.21463468 146.77374266 -170.22039795 144.90670776 C-170.23090495 140.99102503 -170.23674969 137.07536282 -170.24023438 133.15966797 C-170.24572059 128.14363999 -170.26975261 123.12788326 -170.29820633 118.11194038 C-170.31683427 114.25490528 -170.32203838 110.39793551 -170.32357025 106.54085922 C-170.3265966 104.69169506 -170.33462455 102.84253204 -170.34775543 100.99341202 C-170.36482037 98.40571724 -170.36293477 95.81868534 -170.35644531 93.23095703 C-170.3656601 92.46818451 -170.37487488 91.70541199 -170.3843689 90.91952515 C-170.34921472 86.44204049 -169.78147197 83.55435022 -167 80 C-164.11087096 78.55543548 -161.6103906 78.87523653 -158.38232422 78.87402344 C-157.702379 78.8721553 -157.02243378 78.87028717 -156.32188416 78.86836243 C-154.84264378 78.86435477 -153.36339721 78.86228325 -151.88415146 78.86190033 C-148.73283078 78.85848404 -145.58171627 78.83711461 -142.43046761 78.81666946 C-136.56299361 78.77867953 -130.69573599 78.74737789 -124.828125 78.74951172 C-120.74712247 78.75030163 -116.66686989 78.72681251 -112.58606339 78.6876297 C-111.03528343 78.67720591 -109.48441651 78.67561892 -107.93362045 78.68328094 C-96.04273047 78.78394011 -96.04273047 78.78394011 -86 73 C-85.2575 72.39494629 -84.515 71.78989258 -83.75 71.16650391 C-83.1725 70.60882324 -82.595 70.05114258 -82 69.4765625 C-81.34 68.8475 -80.68 68.2184375 -80 67.5703125 C-79.34 66.92835938 -78.68 66.28640625 -78 65.625 C-76.66796703 64.34499957 -75.33463485 63.06634976 -74 61.7890625 C-73.34193359 61.1590332 -72.68386719 60.52900391 -72.00585938 59.87988281 C-69.36519601 57.40506442 -66.64113078 55.03517868 -63.90625 52.66552734 C-61.04907447 50.16915805 -58.27518275 47.58671533 -55.5 45 C-51.41800101 41.21262044 -47.30226124 37.48229355 -43.08984375 33.83984375 C-40.35629481 31.43329879 -37.67884343 28.96698556 -35 26.5 C-31.72144895 23.48073504 -28.43419043 20.47797862 -25.0625 17.5625 C-20.79877437 13.87325529 -16.68218197 10.02697383 -12.56665039 6.17407227 C-4.6786658 -1.16966645 -4.6786658 -1.16966645 0 0 Z " fill="#8BC7DC" transform="translate(484,412)"/>
<path d="M0 0 C6.50364327 4.44661974 10.27150344 11.81792301 14.25 18.4375 C14.73549316 19.23849121 15.22098633 20.03948242 15.72119141 20.86474609 C30.72664068 45.80943405 41.9945128 72.71223395 48.68505859 101.08300781 C49.26483578 103.49933073 49.88979747 105.90094178 50.51953125 108.3046875 C61.39833614 151.11567129 60.79374994 196.5074338 52.75146484 239.71386719 C52.3044519 242.14175247 51.89201677 244.57246262 51.48828125 247.0078125 C47.55006564 269.28287777 39.35708707 292.24018505 29.25 312.4375 C28.55052246 313.85869141 28.55052246 313.85869141 27.83691406 315.30859375 C22.3361778 326.42806314 16.62073537 337.36733327 9.8125 347.75 C9.10528809 348.84248047 9.10528809 348.84248047 8.38378906 349.95703125 C5.01700682 354.91308721 1.61158931 358.70110632 -4.49609375 360.0390625 C-9.56272706 360.08318413 -12.89931755 359.90699163 -16.875 356.5625 C-20.16815933 353.30085415 -20.9669173 351.0506398 -21.171875 346.421875 C-21.09900793 339.83383506 -18.69213204 335.97249957 -15 330.6875 C-13.79566711 328.85054475 -12.59794717 327.00924004 -11.40625 325.1640625 C-10.79523437 324.22208008 -10.18421875 323.28009766 -9.5546875 322.30957031 C4.58404555 299.80848054 13.45134843 274.9888408 20.25 249.4375 C20.63889404 247.98621704 20.63889404 247.98621704 21.03564453 246.50561523 C22.89577779 239.34626514 24.24519258 232.18259442 25.375 224.875 C25.54386719 223.82892578 25.71273437 222.78285156 25.88671875 221.70507812 C28.00940843 208.24187707 28.49113294 195.04347178 28.5 181.4375 C28.50067474 180.50675659 28.50134949 179.57601318 28.50204468 178.61706543 C28.47630958 156.19818626 26.4596166 134.72122525 20.88525391 112.94726562 C20.28091773 110.55965 19.71919377 108.1659733 19.16796875 105.765625 C12.21905689 76.42577494 -1.09551108 47.85005337 -18.078125 22.98046875 C-21.27161447 18.12308173 -21.65892185 13.09682474 -20.75 7.4375 C-18.67042726 3.61331926 -15.99880254 1.15556146 -12.25 -1 C-7.65298102 -2.03432927 -4.2639621 -2.12769135 0 0 Z " fill="#1F464A" transform="translate(736.75,360.5625)"/>
<path d="M0 0 C5.46033892 2.54082885 8.54342521 5.30409215 11.75 10.4375 C12.16628662 11.08726807 12.58257324 11.73703613 13.01147461 12.40649414 C43.17302966 60.50679813 51.89314177 116.40965992 43 172 C42.81824219 173.29164063 42.63648438 174.58328125 42.44921875 175.9140625 C37.52932114 205.56732295 23.97272145 238.08428164 3.6875 260.5625 C-0.48253701 262.79298491 -4.38012153 262.73296149 -9 262 C-13.40608743 259.83701163 -16.1987497 257.60319521 -18 253 C-19.4382812 244.22710734 -16.13057466 238.71354052 -11.5 231.5 C-10.20044151 229.37119632 -8.90748605 227.23834799 -7.62109375 225.1015625 C-6.99444824 224.06161133 -6.36780273 223.02166016 -5.72216797 221.95019531 C18.43247405 180.57158825 21.81357543 127.11298505 10.3125 81.375 C4.58519904 59.99858057 -4.84324762 39.94263095 -16.81542969 21.35302734 C-18.85781447 17.29603959 -18.88824795 13.39568855 -18 9 C-14.23688939 1.33440431 -8.34245964 -1.67112362 0 0 Z " fill="#1F464A" transform="translate(661,409)"/>
<path d="M0 0 C11.43040989 4.33567272 16.21496523 17.61945643 20.921875 28.05859375 C24.00828686 35.19765901 26.19017214 42.44727492 28 50 C28.31839844 51.24910156 28.63679687 52.49820313 28.96484375 53.78515625 C36.45646545 88.27423497 29.29822621 125.97911737 10.33203125 155.60546875 C7.71613832 159.29730735 5.34514037 162.38320358 1 164 C-3.7211716 164.69325754 -7.02377361 164.49732288 -11.3125 162.3125 C-15.71229343 158.52663124 -18.23491295 156.12331764 -18.8125 150.1875 C-18.5602629 142.38916972 -14.01237289 136.37353624 -10.10253906 129.89111328 C3.53201205 106.50465782 3.82207442 76.2909979 -2.84375 50.76953125 C-5.76569277 41.23543352 -10.23435751 31.91139325 -15.875 23.6875 C-18.4611938 19.67503321 -19.44380003 15.77528832 -19 11 C-15.02699647 2.73615267 -9.09078262 -1.63984345 0 0 Z " fill="#214448" transform="translate(588,458)"/>
</svg>
